<mxfile host="app.diagrams.net" agent="Mozilla/5.0 (Macintosh; Intel Mac OS X 10_15_7) AppleWebKit/537.36 (KHTML, like Gecko) Chrome/139.0.0.0 Safari/537.36" version="28.1.2">
  <diagram name="Page-1" id="kus9nQzloR_43RVJ_Lc3">
    <mxGraphModel dx="1216" dy="779" grid="1" gridSize="10" guides="1" tooltips="1" connect="1" arrows="1" fold="1" page="1" pageScale="1" pageWidth="850" pageHeight="1100" background="light-dark(#FFFFFF,#000000)" math="0" shadow="0">
      <root>
        <mxCell id="0" />
        <mxCell id="1" parent="0" />
        <mxCell id="bjN3-DLkefVtG61BQKds-7" style="edgeStyle=orthogonalEdgeStyle;rounded=0;orthogonalLoop=1;jettySize=auto;html=1;entryX=0;entryY=0.5;entryDx=0;entryDy=0;exitX=1;exitY=0.5;exitDx=0;exitDy=0;" edge="1" parent="1" source="bjN3-DLkefVtG61BQKds-16" target="bjN3-DLkefVtG61BQKds-3">
          <mxGeometry relative="1" as="geometry">
            <mxPoint x="320" y="131" as="sourcePoint" />
          </mxGeometry>
        </mxCell>
        <mxCell id="bjN3-DLkefVtG61BQKds-23" style="edgeStyle=orthogonalEdgeStyle;rounded=0;orthogonalLoop=1;jettySize=auto;html=1;entryX=0;entryY=0.5;entryDx=0;entryDy=0;" edge="1" parent="1" source="bjN3-DLkefVtG61BQKds-2" target="bjN3-DLkefVtG61BQKds-4">
          <mxGeometry relative="1" as="geometry" />
        </mxCell>
        <mxCell id="bjN3-DLkefVtG61BQKds-2" value="Binnacle/ Adding new rules" style="rounded=0;whiteSpace=wrap;html=1;" vertex="1" parent="1">
          <mxGeometry x="210" y="270" width="120" height="60" as="geometry" />
        </mxCell>
        <mxCell id="bjN3-DLkefVtG61BQKds-8" style="edgeStyle=orthogonalEdgeStyle;rounded=0;orthogonalLoop=1;jettySize=auto;html=1;" edge="1" parent="1" source="bjN3-DLkefVtG61BQKds-3" target="bjN3-DLkefVtG61BQKds-4">
          <mxGeometry relative="1" as="geometry" />
        </mxCell>
        <mxCell id="bjN3-DLkefVtG61BQKds-3" value="OpenAi / Strace" style="rounded=0;whiteSpace=wrap;html=1;" vertex="1" parent="1">
          <mxGeometry x="440" y="90" width="120" height="60" as="geometry" />
        </mxCell>
        <mxCell id="bjN3-DLkefVtG61BQKds-10" style="edgeStyle=orthogonalEdgeStyle;rounded=0;orthogonalLoop=1;jettySize=auto;html=1;entryX=0.5;entryY=0;entryDx=0;entryDy=0;exitX=1;exitY=0.5;exitDx=0;exitDy=0;" edge="1" parent="1" source="bjN3-DLkefVtG61BQKds-4">
          <mxGeometry relative="1" as="geometry">
            <mxPoint x="710" y="400" as="targetPoint" />
            <mxPoint x="550" y="250" as="sourcePoint" />
            <Array as="points">
              <mxPoint x="710" y="300" />
            </Array>
          </mxGeometry>
        </mxCell>
        <mxCell id="bjN3-DLkefVtG61BQKds-11" style="edgeStyle=orthogonalEdgeStyle;rounded=0;orthogonalLoop=1;jettySize=auto;html=1;entryX=1;entryY=0.5;entryDx=0;entryDy=0;" edge="1" parent="1" source="bjN3-DLkefVtG61BQKds-4" target="bjN3-DLkefVtG61BQKds-5">
          <mxGeometry relative="1" as="geometry" />
        </mxCell>
        <mxCell id="bjN3-DLkefVtG61BQKds-4" value="if Static &amp;gt; Dynamic" style="rhombus;whiteSpace=wrap;html=1;" vertex="1" parent="1">
          <mxGeometry x="460" y="260" width="80" height="80" as="geometry" />
        </mxCell>
        <mxCell id="bjN3-DLkefVtG61BQKds-5" value="Static Analysis" style="rounded=0;whiteSpace=wrap;html=1;" vertex="1" parent="1">
          <mxGeometry x="350" y="410" width="120" height="60" as="geometry" />
        </mxCell>
        <mxCell id="bjN3-DLkefVtG61BQKds-6" value="Dynamic Analysis" style="rounded=0;whiteSpace=wrap;html=1;" vertex="1" parent="1">
          <mxGeometry x="650" y="400" width="120" height="60" as="geometry" />
        </mxCell>
        <mxCell id="bjN3-DLkefVtG61BQKds-21" style="edgeStyle=orthogonalEdgeStyle;rounded=0;orthogonalLoop=1;jettySize=auto;html=1;entryX=0;entryY=0.5;entryDx=0;entryDy=0;" edge="1" parent="1" source="bjN3-DLkefVtG61BQKds-12" target="bjN3-DLkefVtG61BQKds-16">
          <mxGeometry relative="1" as="geometry" />
        </mxCell>
        <mxCell id="bjN3-DLkefVtG61BQKds-12" value="Programming Language (Python)" style="ellipse;whiteSpace=wrap;html=1;" vertex="1" parent="1">
          <mxGeometry x="30" y="80" width="120" height="80" as="geometry" />
        </mxCell>
        <mxCell id="bjN3-DLkefVtG61BQKds-14" value="Image Size" style="text;html=1;align=center;verticalAlign=middle;whiteSpace=wrap;rounded=0;" vertex="1" parent="1">
          <mxGeometry x="370" y="260" width="60" height="30" as="geometry" />
        </mxCell>
        <mxCell id="bjN3-DLkefVtG61BQKds-15" value="Image Size" style="text;html=1;align=center;verticalAlign=middle;whiteSpace=wrap;rounded=0;" vertex="1" parent="1">
          <mxGeometry x="490" y="190" width="60" height="30" as="geometry" />
        </mxCell>
        <mxCell id="bjN3-DLkefVtG61BQKds-16" value="GitHuub Repository" style="rounded=0;whiteSpace=wrap;html=1;" vertex="1" parent="1">
          <mxGeometry x="200" y="90" width="120" height="60" as="geometry" />
        </mxCell>
        <mxCell id="bjN3-DLkefVtG61BQKds-18" value="No" style="text;html=1;align=center;verticalAlign=middle;whiteSpace=wrap;rounded=0;" vertex="1" parent="1">
          <mxGeometry x="460" y="370" width="60" height="30" as="geometry" />
        </mxCell>
        <mxCell id="bjN3-DLkefVtG61BQKds-19" value="Yes" style="text;html=1;align=center;verticalAlign=middle;whiteSpace=wrap;rounded=0;" vertex="1" parent="1">
          <mxGeometry x="570" y="270" width="60" height="30" as="geometry" />
        </mxCell>
        <mxCell id="bjN3-DLkefVtG61BQKds-22" style="edgeStyle=orthogonalEdgeStyle;rounded=0;orthogonalLoop=1;jettySize=auto;html=1;entryX=0.417;entryY=-0.033;entryDx=0;entryDy=0;entryPerimeter=0;" edge="1" parent="1" source="bjN3-DLkefVtG61BQKds-16" target="bjN3-DLkefVtG61BQKds-2">
          <mxGeometry relative="1" as="geometry">
            <mxPoint x="261" y="220" as="targetPoint" />
          </mxGeometry>
        </mxCell>
      </root>
    </mxGraphModel>
  </diagram>
</mxfile>
